<svg width="971" height="455" viewBox="0 0 971 455" fill="none" xmlns="http://www.w3.org/2000/svg">
<rect width="971" height="454.328" fill="white"/>
<path d="M531.565 67.0466C531.565 70.766 528.454 73.8295 524.557 73.8295C520.659 73.8295 517.548 70.766 517.548 67.0466C517.548 63.3272 520.659 60.2637 524.557 60.2637C528.454 60.2637 531.565 63.3272 531.565 67.0466Z" stroke="#05FF00" stroke-opacity="0.8" stroke-width="2"/>
<path d="M99.1195 427.007C99.1195 430.726 96.0089 433.789 92.1113 433.789C88.2136 433.789 85.103 430.726 85.103 427.007C85.103 423.287 88.2136 420.224 92.1113 420.224C96.0089 420.224 99.1195 423.287 99.1195 427.007Z" stroke="#05FF00" stroke-opacity="0.8" stroke-width="2"/>
<path d="M569.465 386.111C569.465 389.83 566.355 392.894 562.457 392.894C558.559 392.894 555.449 389.83 555.449 386.111C555.449 382.392 558.559 379.328 562.457 379.328C566.355 379.328 569.465 382.392 569.465 386.111Z" stroke="#FFB400" stroke-opacity="0.8" stroke-width="2"/>
<path d="M51.0702 45.6433C51.0702 49.3627 47.9596 52.4262 44.062 52.4262C40.1643 52.4262 37.0537 49.3627 37.0537 45.6433C37.0537 41.9239 40.1643 38.8604 44.062 38.8604C47.9596 38.8604 51.0702 41.9239 51.0702 45.6433Z" stroke="#FFB400" stroke-opacity="0.8" stroke-width="2"/>
<rect x="0.453885" y="1.32248" width="13.9306" height="13.6538" transform="matrix(0.903244 0.429128 -0.449359 0.893351 900.046 76.3896)" stroke="#FFB400" stroke-opacity="0.8" stroke-width="2"/>
<rect x="0.453885" y="1.32248" width="13.9306" height="13.6538" transform="matrix(0.903244 0.429128 -0.449359 0.893351 378.07 330.639)" stroke="#0047FF" stroke-opacity="0.8" stroke-width="2"/>
<path d="M920.792 434.762L925.97 426.046L931.148 434.762H920.792Z" stroke="#FF2E00" stroke-opacity="0.8" stroke-width="2"/>
</svg>
